<svg xmlns="http://www.w3.org/2000/svg" viewBox="0 0 125.99 252.85"><defs><style>.cls-1{fill:#1e3d58;}</style></defs><title>Asset 4</title><g id="Layer_2" data-name="Layer 2"><g id="Layer_1_copy_2" data-name="Layer 1 copy 2"><path class="cls-1" d="M126,126A67.49,67.49,0,0,0,77.52,62.07,163.32,163.32,0,0,1,62,56.35C28.31,42,14.46,18.78,0,0V252.85c14.46-18.78,28.31-42,62-56.35a163.32,163.32,0,0,1,15.52-5.72A67.49,67.49,0,0,0,126,126.85c0-.12,0-.23,0-.35v-.15C126,126.23,126,126.12,126,126ZM80.54,161.73a5,5,0,1,1-7.08,7.07L36.69,132a5,5,0,0,1,0-7.08L73.46,88.19a5,5,0,1,1,7.08,7.08L47.3,128.5Z"/></g></g></svg>