<?xml version="1.0"?>
<svg xmlns="http://www.w3.org/2000/svg" xmlns:xlink="http://www.w3.org/1999/xlink" xmlns:svgjs="http://svgjs.com/svgjs" version="1.1" width="512" height="512" x="0" y="0" viewBox="0 0 512 512" style="enable-background:new 0 0 512 512" xml:space="preserve"><g><path xmlns="http://www.w3.org/2000/svg" d="m395.594 422h-210c-8.271 0-15-6.729-15-15s6.729-15 15-15h250.812l70-210h-95.812v-182h-210v182h-72.105l-22.5-60h-100.395v30h79.605l80.495 214.654c-14.857 7.358-25.1 22.675-25.1 40.346 0 20.723 14.085 38.209 33.181 43.414-2.045 5.136-3.181 10.729-3.181 16.586 0 24.813 20.187 45 45 45s45-20.187 45-45c0-5.258-.915-10.305-2.58-15h95.161c-1.665 4.695-2.58 9.742-2.58 15 0 24.813 20.187 45 45 45s45-20.187 45-45-20.188-45-45.001-45zm-32.707-120h-42.293v-30h47.293zm35.414-30h46.482l-10 30h-41.482zm-77.707 60h37.293l-5 30h-32.293zm-30 30h-32.293l-5-30h37.293zm30-120v-30h57.293l-5 30zm-30 0h-52.293l-5-30h57.293zm0 30v30h-42.293l-5-30zm-72.707 30h-44.398l-11.25-30h50.648zm5 30 5 30h-31.898l-11.25-30zm160.414 30 5-30h36.482l-10 30zm71.482-120h-51.482l5-30h56.482zm-224.189-212h60v60h30v-60h60v152h-150zm-27.707 182 5 30h-56.898l-11.25-30zm27.707 255c0 8.271-6.729 15-15 15s-15-6.729-15-15 6.729-15 15-15 15 6.729 15 15zm165 15c-8.271 0-15-6.729-15-15s6.729-15 15-15 15 6.729 15 15-6.729 15-15 15z" fill="#ffffff" data-original="#000000" style=""/></g></svg>
