<?xml version="1.0"?>
<svg xmlns="http://www.w3.org/2000/svg" xmlns:xlink="http://www.w3.org/1999/xlink" xmlns:svgjs="http://svgjs.com/svgjs" version="1.1" width="512" height="512" x="0" y="0" viewBox="0 0 512.002 512.002" style="enable-background:new 0 0 512 512" xml:space="preserve" class=""><g><g xmlns="http://www.w3.org/2000/svg"><path d="m291.126 158.314v-46.96c12.848-14.582 20.125-33.583 20.125-53.119v-57.538l-54.476 13.554-40.904-14.249-40.899 14.249-54.471-13.555v57.539c0 19.537 7.277 38.537 20.125 53.119v46.96c-36.415 29.103-66.463 66.327-87.162 108.083-21.81 43.999-33.338 93.213-33.338 142.321 0 56.951 46.333 103.283 103.283 103.283h184.934c56.951 0 103.283-46.333 103.283-103.283 0-49.108-11.528-98.322-33.338-142.321-20.699-41.756-50.747-78.98-87.162-108.083zm-120.5-37.937h90.5v30.25h-90.5zm-20.125-81.301 25.9 6.445 39.47-13.751 39.475 13.751 25.904-6.446v19.159c0 11.735-4.182 23.169-11.622 32.142h-107.505c-7.44-8.973-11.622-20.407-11.622-32.142zm157.842 442.926h-184.934c-40.409 0-73.283-32.875-73.283-73.283 0-44.511 10.449-89.118 30.217-128.998 19.029-38.388 46.769-72.553 80.413-99.094h110.24c33.644 26.541 61.384 60.706 80.413 99.094 19.768 39.88 30.217 84.487 30.217 128.998 0 40.408-32.875 73.283-73.283 73.283z" fill="#ffffff" data-original="#000000" style="" class=""/><path d="m224.148 316.314h-16.545c-8.337 0-15.121-6.783-15.121-15.121s6.783-15.12 15.121-15.12h16.166c8.348 0 15.139 6.791 15.139 15.139h30c0-22.472-16.508-41.155-38.032-44.574v-20.22h-30v20.159c-21.7 3.258-38.393 22.023-38.393 44.617 0 24.879 20.241 45.12 45.121 45.12h16.545c8.337 0 15.121 6.783 15.121 15.121s-6.783 15.12-15.121 15.12h-16.839c-8.043 0-14.587-6.543-14.587-14.587h-30c0 22.4 16.606 40.988 38.153 44.117v20.126h30v-20.159c21.7-3.258 38.393-22.023 38.393-44.617 0-24.88-20.241-45.121-45.121-45.121z" fill="#ffffff" data-original="#000000" style="" class=""/><path d="m461.751 84.643v-84.643l-90.25.002v84.641h-30.125v27.213l75.25 75.25 75.25-75.25v-27.213zm-45.126 60.037-30.036-30.036h14.912v-84.643h30.25v84.642h14.912z" fill="#ffffff" data-original="#000000" style="" class=""/></g></g></svg>
