<?xml version="1.0"?>
<svg xmlns="http://www.w3.org/2000/svg" xmlns:xlink="http://www.w3.org/1999/xlink" xmlns:svgjs="http://svgjs.com/svgjs" version="1.1" width="512" height="512" x="0" y="0" viewBox="0 0 512 512" style="enable-background:new 0 0 512 512" xml:space="preserve" class=""><g><g xmlns="http://www.w3.org/2000/svg"><path d="m502.74 153.142c-5.607-2.323-12.058-1.038-16.347 3.251l-19.393 19.394-19.394-19.394c-5.857-5.858-15.355-5.858-21.213 0l-19.393 19.394-15-15v-85.787c0-41.351-33.638-74.992-74.993-75-.002 0-.005 0-.007 0h-240c-41.467 0-77 33.522-77 75v422c0 5.979 3.551 11.387 9.037 13.764 5.485 2.376 11.859 1.268 16.222-2.821l21.404-20.067 19.73 19.73c5.857 5.858 15.355 5.858 21.213 0l19.394-19.393 19.394 19.394c5.857 5.858 15.355 5.858 21.213 0l19.393-19.394 19.394 19.394c5.857 5.858 15.355 5.858 21.213 0l19.393-19.394 19.394 19.394c2.87 2.87 6.706 4.394 10.61 4.394 8.24-.001 14.997-6.686 14.997-15v-165.001h165c41.355 0 75-33.645 75-75v-90c-.001-6.067-3.656-11.537-9.261-13.858zm-260.74 307.645-4.394-4.394c-5.857-5.858-15.355-5.858-21.213 0l-19.393 19.394-19.394-19.394c-5.857-5.858-15.355-5.858-21.213 0l-19.393 19.394-19.394-19.394c-5.857-5.858-15.355-5.858-21.213 0l-19.393 19.394-19.394-19.394c-5.723-5.724-14.958-5.874-20.866-.336l-6.74 6.319v-387.376c0-24.393 21.523-45 47-45h180.04c-9.437 12.544-15.04 28.129-15.04 45zm30-385.787c0-24.813 20.184-45 45-45 24.813 0 45 20.187 45 45v182c0 16.871 5.603 32.456 15.041 45h-105.041c0-24.007 0-220.167 0-227zm210 182c0 24.813-20.187 45-45 45s-45-20.187-45-45v-53.787l4.394 4.394c5.857 5.858 15.355 5.858 21.213 0l19.393-19.394 19.394 19.394c5.857 5.858 15.355 5.858 21.213 0l4.394-4.394v53.787z" fill="#ffffff" data-original="#000000" style="" class=""/><path d="m197 302h-120c-8.284 0-15 6.716-15 15s6.716 15 15 15h120c8.284 0 15-6.716 15-15s-6.716-15-15-15z" fill="#ffffff" data-original="#000000" style="" class=""/><path d="m197 362h-120c-8.284 0-15 6.716-15 15s6.716 15 15 15h120c8.284 0 15-6.716 15-15s-6.716-15-15-15z" fill="#ffffff" data-original="#000000" style="" class=""/><path d="m152 212h-30c-8.271 0-15-6.729-15-15 0-8.284-6.716-15-15-15s-15 6.716-15 15c0 24.813 20.187 45 45 45v15c0 8.284 6.716 15 15 15s15-6.716 15-15v-15c24.813 0 45-20.187 45-45s-20.187-45-45-45h-30c-8.271 0-15-6.729-15-15s6.729-15 15-15h30c8.271 0 15 6.729 15 15 0 8.284 6.716 15 15 15s15-6.716 15-15c0-24.813-20.187-45-45-45v-15c0-8.284-6.716-15-15-15s-15 6.716-15 15v15c-24.813 0-45 20.187-45 45s20.187 45 45 45h30c8.271 0 15 6.729 15 15s-6.729 15-15 15z" fill="#ffffff" data-original="#000000" style="" class=""/></g></g></svg>
