<svg xmlns="http://www.w3.org/2000/svg" xmlns:xlink="http://www.w3.org/1999/xlink" viewBox="0 0 750 500"><defs><style>.cls-1{fill:none;}.cls-2{fill:#f3e2da;}.cls-3{fill:#e36e4b;}.cls-4{fill:#548ca7;}.cls-5{fill:#f1a919;}.cls-6{fill:#e4a943;}.cls-7{fill:#60c2a9;}.cls-8{fill:#e73d23;}.cls-9{fill:url(#New_Pattern_5);}</style><pattern id="New_Pattern_5" data-name="New Pattern 5" width="431.97" height="431.95" patternTransform="translate(382.61 114.4) scale(0.7)" patternUnits="userSpaceOnUse" viewBox="0 0 431.97 431.95"><rect class="cls-1" width="431.97" height="431.95"/><path class="cls-2" d="M288,0V144H144V0h2.39A72,72,0,0,1,216,70.14,72,72,0,0,1,285.56,0ZM286.09,144A72,72,0,0,1,216,73.86,72,72,0,0,1,145.85,144Z"/><path class="cls-3" d="M216,72c0,.62,0,1.24,0,1.86A72,72,0,0,1,145.85,144L144,144h0V0c.8,0,1.6,0,2.39,0A72,72,0,0,1,216,70.14C216,70.76,216,71.38,216,72Z"/><path class="cls-3" d="M288,0V144l-1.86,0A72,72,0,0,1,216,73.86c0-.62,0-1.24,0-1.86s0-1.24,0-1.86A72,72,0,0,1,285.56,0C286.35,0,287.15,0,288,0Z"/><path class="cls-2" d="M288,288H144v-2.12A72,72,0,0,1,214.47,216,72,72,0,0,1,144,146.1V144H288a72,72,0,0,1-70.49,72A72,72,0,0,1,288,288Z"/><path class="cls-4" d="M288,288H144v0c0-.61,0-1.23,0-1.84a2.26,2.26,0,0,0,0-.26A72,72,0,0,1,214.47,216h.11c.46,0,.93,0,1.39,0s.93,0,1.4,0h.11A72,72,0,0,1,288,288Z"/><path class="cls-4" d="M288,144a72,72,0,0,1-70.49,72h-3A72,72,0,0,1,144,146.1a2.26,2.26,0,0,0,0-.26c0-.62,0-1.24,0-1.86Z"/><path class="cls-5" d="M144,431c0,.31,0,.62,0,.93h0Z"/><path class="cls-5" d="M144,288c0,.31,0,.62,0,.93V288Z"/><path class="cls-5" d="M216,360c0,.62,0,1.24,0,1.86,0-.62,0-1.24,0-1.86s0-1.24,0-1.86C216,358.71,216,359.33,216,360Z"/><path class="cls-6" d="M216,358.09A72,72,0,0,0,146.11,288H285.83A72,72,0,0,0,216,358.09Z"/><path class="cls-6" d="M216,361.81A72,72,0,0,0,288,432H144A72,72,0,0,0,216,361.81Z"/><path class="cls-2" d="M144,431c0,.31,0,.62,0,.93h0Z"/><path class="cls-2" d="M144,288c.71,0,1.41,0,2.11,0H144c0,.31,0,.62,0,.93v-1Z"/><path class="cls-2" d="M216,360c0,.62,0,1.24,0,1.86,0-.62,0-1.24,0-1.86s0-1.24,0-1.86C216,358.71,216,359.33,216,360Z"/><path class="cls-2" d="M216,358.09c0,.62,0,1.24,0,1.86s0,1.24,0,1.86c0-.62,0-1.24,0-1.86S216,358.71,216,358.09Z"/><path class="cls-2" d="M288,288v0h-2.12C286.53,288,287.24,288,288,288Z"/><path class="cls-4" d="M70.14,72A72,72,0,0,0,0,141.59V2.41A72,72,0,0,0,70.14,72Z"/><path class="cls-7" d="M73.86,72,72,72l-1.86,0L72,72Z"/><path class="cls-7" d="M0,144l1.84,0H0Z"/><path class="cls-4" d="M144,0V144h-1.87l1.86,0v-.91A72,72,0,0,0,73.86,72,72,72,0,0,0,144,1V0Z"/><path class="cls-2" d="M73.86,72,72,72l-1.86,0L72,72Z"/><path class="cls-2" d="M0,144l1.84,0H0c0-.8,0-1.6,0-2.39Z"/><path class="cls-2" d="M144,144h-1.87l1.86,0v-.91C144,143.36,144,143.67,144,144Z"/><path class="cls-2" d="M0,0H0V2.41C0,1.62,0,.82,0,0Z"/><path class="cls-2" d="M73.86,72,72,72l-1.86,0L72,72Z"/><path class="cls-2" d="M144,0V0c0,.3,0,.61,0,.91V0Z"/><path class="cls-2" d="M144,144v144h-2.12A72,72,0,0,1,72,217.36,72,72,0,0,1,2.14,287.93H0V144H0l1.84,0A72,72,0,0,1,72,214.57,72,72,0,0,1,142.13,144Z"/><path class="cls-6" d="M144,144V288c-.71,0-1.42,0-2.12,0A72,72,0,0,1,72,217.36c0-.47,0-.93,0-1.4s0-.93,0-1.39A72,72,0,0,1,142.13,144Z"/><path class="cls-6" d="M72,216c0,.47,0,.93,0,1.4A72,72,0,0,1,2.14,287.93c-.7,0-1.41,0-2.12,0V144H0l1.84,0A72,72,0,0,1,72,214.57C72,215,72,215.5,72,216Z"/><path class="cls-2" d="M73.4,360A72,72,0,0,1,144,429.83V432H0a72,72,0,0,1,70.61-72A72,72,0,0,1,0,288H144v2.12A72,72,0,0,1,73.4,360Z"/><path class="cls-3" d="M144,288c0,.31,0,.62,0,.93s0,.79,0,1.19A72,72,0,0,1,73.4,360H70.61A72,72,0,0,1,0,288Z"/><path class="cls-3" d="M144,432H0a72,72,0,0,1,70.61-72c.46,0,.93,0,1.39,0s.93,0,1.4,0A72,72,0,0,1,144,429.83c0,.4,0,.79,0,1.19S144,431.64,144,432Z"/><path class="cls-2" d="M361.83,72a72,72,0,0,1,70.1,69.59V144H288a72,72,0,0,1,70.14-72A72,72,0,0,1,288,0h144V2.41A72,72,0,0,1,361.83,72Z"/><path class="cls-6" d="M432,0c0,.8,0,1.6,0,2.39A72,72,0,0,1,361.83,72L360,72l-1.86,0A72,72,0,0,1,288,0Z"/><path class="cls-6" d="M432,144H288a72,72,0,0,1,70.14-72L360,72l1.86,0a72,72,0,0,1,70.1,69.59C432,142.38,432,143.18,432,144Z"/><path class="cls-8" d="M360,216c0-.62,0-1.24,0-1.86,0,.62,0,1.24,0,1.86s0,1.24,0,1.86C360,217.2,360,216.58,360,216Z"/><path class="cls-3" d="M360,217.82a72,72,0,0,0,69.86,70.11H290.11A72,72,0,0,0,360,217.82Z"/><path class="cls-3" d="M432,144v0h-1.86A72,72,0,0,0,360,214.1,72,72,0,0,0,289.85,144H288v0H432Z"/><path class="cls-2" d="M360,216c0,.62,0,1.24,0,1.86,0-.62,0-1.24,0-1.86s0-1.24,0-1.86C360,214.72,360,215.34,360,216Z"/><path class="cls-2" d="M432,144v0h-1.86l1.84,0Z"/><path class="cls-2" d="M429.83,287.93H432v0C431.24,288,430.53,288,429.83,287.93Z"/><path class="cls-2" d="M289.85,144H288v0Z"/><path class="cls-2" d="M288,287.93h2.12c-.7,0-1.41,0-2.12,0Z"/><path class="cls-2" d="M360,216c0,.62,0,1.24,0,1.86,0-.62,0-1.24,0-1.86s0-1.24,0-1.86C360,214.72,360,215.34,360,216Z"/><path class="cls-2" d="M361.37,360a72,72,0,0,1,70.56,69.59V432H288a72,72,0,0,1,70.61-72A72,72,0,0,1,288,288h144v2.39A72,72,0,0,1,361.37,360Z"/><path class="cls-4" d="M432,288c0,.8,0,1.6,0,2.39A72,72,0,0,1,361.37,360h-2.79A72,72,0,0,1,288,288Z"/><path class="cls-4" d="M432,432H288a72,72,0,0,1,70.61-72c.46,0,.93,0,1.39,0s.93,0,1.4,0a72,72,0,0,1,70.56,69.59C432,430.35,432,431.15,432,432Z"/></pattern></defs><title>4997690</title><g id="BACKGROUND"><rect class="cls-2" width="750" height="500"/></g><g id="OBJECTS"><rect class="cls-9" width="750" height="500"/></g></svg>