<?xml version="1.0"?>
<svg xmlns="http://www.w3.org/2000/svg" xmlns:xlink="http://www.w3.org/1999/xlink" xmlns:svgjs="http://svgjs.com/svgjs" version="1.1" width="512" height="512" x="0" y="0" viewBox="0 0 512 512" style="enable-background:new 0 0 512 512" xml:space="preserve" class=""><g><path xmlns="http://www.w3.org/2000/svg" d="m20 115h304.125c9.210938 42.8125 47.351562 75 92.875 75 52.382812 0 95-42.617188 95-95s-42.617188-95-95-95c-45.523438 0-83.664062 32.1875-92.875 75h-304.125c-11.046875 0-20 8.953125-20 20s8.953125 20 20 20zm397-75c30.328125 0 55 24.671875 55 55s-24.671875 55-55 55-55-24.671875-55-55 24.671875-55 55-55zm75 255h-304.125c-9.210938-42.8125-47.351562-75-92.875-75-52.382812 0-95 42.617188-95 95s42.617188 95 95 95c45.523438 0 83.664062-32.1875 92.875-75h304.125c11.046875 0 20-8.953125 20-20s-8.953125-20-20-20zm-397 75c-30.328125 0-55-24.671875-55-55s24.671875-55 55-55 55 24.671875 55 55-24.671875 55-55 55zm0 0" fill="#1e3d58" data-original="#000000" style="" class=""/></g></svg>
