<svg id="Layer_1" data-name="Layer 1" xmlns="http://www.w3.org/2000/svg" viewBox="0 0 47.51 64"><defs><style>.cls-1{fill:#6d5a55;}.cls-2{fill:#323942;}.cls-3{fill:#e48282;}.cls-4{fill:#e49581;}.cls-5{fill:#f4b5a3;}.cls-6{fill:#5566b5;}</style></defs><title>profile</title><path class="cls-1" d="M21.82,11.39l-4.43-1.16s-2.66,8.26,1.05,11.1S21.82,11.39,21.82,11.39Z" transform="translate(-7.2 0)"/><path class="cls-2" d="M7.2,64S11.88,41.07,32,41.07,54.71,64,54.71,64Z" transform="translate(-7.2 0)"/><circle class="cls-3" cx="17.39" cy="20.85" r="3.73" transform="translate(-13.84 8.2) rotate(-22.39)"/><circle class="cls-3" cx="45.09" cy="20.85" r="3.73" transform="translate(-8.74 37.99) rotate(-45)"/><path class="cls-4" d="M36.06,34.4l-.63-8.29L29,27,27.9,39.11A11.66,11.66,0,0,0,36.06,34.4Z" transform="translate(-7.2 0)"/><path class="cls-5" d="M20.72,11.94c1.62,1.63-.26,5.61-2.28,5.36a20.48,20.48,0,0,0,.19,4.56,11.37,11.37,0,0,0,5.85,9.21c3.57,1.9,8.42,2.58,12.21,1a11.35,11.35,0,0,0,6.37-6.27c1.32-3.31,1.33-7.55,1.16-11.12-.67-13.24-11.45-13-11.45-13S24.69,2,20.72,11.94Z" transform="translate(-7.2 0)"/><path class="cls-5" d="M27.9,39.11l-.46,5.33s.19,2.67,4.5,3.17,4.82-4,4.82-4l-.7-9.22A11.66,11.66,0,0,1,27.9,39.11Z" transform="translate(-7.2 0)"/><ellipse class="cls-2" cx="18.21" cy="19.97" rx="0.66" ry="1.32"/><path class="cls-2" d="M38.33,20.19c0,.73-.3,1.33-.66,1.33s-.66-.6-.66-1.33.29-1.32.66-1.32S38.33,19.46,38.33,20.19Z" transform="translate(-7.2 0)"/><path class="cls-2" d="M31.45,20.85c-.24.24-.48.45-.7.63s-.43.43-.38.42a1,1,0,0,0,.3.27,1.07,1.07,0,0,0,.78,0,.89.89,0,0,1-.9.56,1,1,0,0,1-.57-.22.78.78,0,0,1-.36-.69,1.16,1.16,0,0,1,.85-.86A2.16,2.16,0,0,1,31.45,20.85Z" transform="translate(-7.2 0)"/><path class="cls-2" d="M29.61,24a6,6,0,0,0,1.86.52A3.66,3.66,0,0,0,33.26,24a1.9,1.9,0,0,1-.67.92,1.8,1.8,0,0,1-1.16.35A2.14,2.14,0,0,1,29.61,24Z" transform="translate(-7.2 0)"/><circle class="cls-3" cx="17.55" cy="24.41" r="1.39"/><circle class="cls-3" cx="30.46" cy="24.41" r="1.39"/><path class="cls-1" d="M42.34,14.73c-.36-1.06-.5-2.18-.82-3.25a4.79,4.79,0,0,0-1.78-2.75,4.68,4.68,0,0,0-3.25-.53c-3,.42-5.54,2.25-8.37,3.25a15.45,15.45,0,0,1-9.76.16A8.86,8.86,0,0,1,15.28,10a6.32,6.32,0,0,1-1.94-6.41,2.41,2.41,0,0,1,.6-1.11,1.12,1.12,0,0,1,1.18-.25c.62.3.65,1.1.76,1.69a5.4,5.4,0,0,0,.91,2.47c.42-.7.19-1.82.27-2.61A3.35,3.35,0,0,1,18.2,1.39a.76.76,0,0,1,.57-.2c.53.06.6.8.57,1.34a7.14,7.14,0,0,0,.45,2.82c-.05-1.65-.07-3.45.92-4.77a1,1,0,0,1,.94-.53c.42.09.61.6.61,1a3,3,0,0,0,.09,1.28,1.36,1.36,0,0,0,1.24.7A3.9,3.9,0,0,0,25,2.71,43.78,43.78,0,0,1,36,.07a8.31,8.31,0,0,1,4.29.47A6.11,6.11,0,0,1,43,3.23,13.3,13.3,0,0,1,44.22,6.9a31.55,31.55,0,0,1,.62,7.32c0,.65.19,2.6-.82,2.55C43.18,16.73,42.56,15.38,42.34,14.73Z" transform="translate(-7.2 0)"/><polygon class="cls-6" points="45.34 56.03 2.88 56.03 3.28 55.25 45.01 55.25 45.34 56.03"/><polygon class="cls-6" points="46.9 60.88 0.89 60.88 1.16 60.1 46.7 60.1 46.9 60.88"/><path class="cls-2" d="M35.69,17.33a2.44,2.44,0,0,1,.85-1.15,2.79,2.79,0,0,1,1.38-.57,2.53,2.53,0,0,1,1.49.31,2.36,2.36,0,0,1,1,1c-.48-.11-.87-.26-1.26-.32a3.41,3.41,0,0,0-1.1,0A8.34,8.34,0,0,0,35.69,17.33Z" transform="translate(-7.2 0)"/><path class="cls-2" d="M27.54,17a3.47,3.47,0,0,0-2.38-.78,7.35,7.35,0,0,0-1.27.16,12.4,12.4,0,0,1-1.42.27,3.76,3.76,0,0,1,1.14-1,3.43,3.43,0,0,1,1.52-.43,2.55,2.55,0,0,1,1.58.46A1.9,1.9,0,0,1,27.54,17Z" transform="translate(-7.2 0)"/></svg>